<?xml version="1.0" standalone="no"?>
<!DOCTYPE svg PUBLIC "-//W3C//DTD SVG 20010904//EN"
 "http://www.w3.org/TR/2001/REC-SVG-20010904/DTD/svg10.dtd">
<svg version="1.0" xmlns="http://www.w3.org/2000/svg"
 width="500.000000pt" height="500.000000pt" viewBox="0 0 500.000000 500.000000"
 preserveAspectRatio="xMidYMid meet">

<g transform="translate(0.000000,500.000000) scale(0.100000,-0.100000)"
fill="#000000" stroke="none">
<path d="M2494 4330 c-318 -58 -494 -243 -498 -525 -1 -121 16 -180 79 -263
53 -71 134 -129 260 -188 52 -24 95 -47 95 -52 0 -12 -245 -572 -251 -572 -15
0 -50 85 -57 137 l-7 58 -118 3 c-101 2 -118 0 -124 -14 -11 -29 16 -173 43
-228 26 -53 88 -125 133 -154 34 -23 27 -47 -86 -305 l-98 -226 -7 47 c-4 26
-21 331 -38 677 -17 347 -33 649 -36 673 l-5 42 -194 0 c-107 0 -196 -3 -198
-7 -2 -5 35 -424 82 -933 l86 -925 173 -3 c155 -2 172 -4 172 -20 0 -9 -34
-206 -75 -437 -41 -231 -75 -423 -75 -427 0 -5 54 -8 120 -8 116 0 120 1 125
23 3 12 32 175 65 362 33 187 62 350 65 363 5 22 7 22 156 20 l151 -3 155
-383 156 -382 143 0 c79 0 144 3 144 6 0 3 -72 176 -160 384 -88 208 -161 384
-162 390 -2 7 23 19 57 29 33 9 87 30 120 46 51 26 75 31 163 35 l103 5 425
928 c233 510 424 930 424 933 0 2 -90 3 -201 2 l-200 -3 -204 -500 c-113 -275
-209 -510 -214 -522 -9 -21 -11 -20 -51 18 -23 22 -68 53 -101 69 -54 28 -59
33 -59 63 0 23 8 41 26 58 39 36 90 127 109 193 34 118 17 287 -39 375 -13 20
-52 63 -87 96 -56 53 -64 66 -69 105 l-5 45 -100 5 c-86 4 -111 10 -175 39
-227 101 -335 176 -371 256 -44 96 -13 233 69 307 82 74 162 99 308 99 183 0
311 -90 330 -234 l7 -47 125 0 125 0 -6 72 c-15 183 -149 326 -359 384 -64 18
-293 27 -364 14z m113 -1572 c5 -68 7 -126 3 -131 -4 -4 -37 -10 -75 -14 -80
-7 -80 -25 -2 149 29 65 55 118 58 118 3 0 11 -55 16 -122z m33 -387 c0 -4 13
-163 30 -351 16 -189 28 -345 26 -348 -15 -15 -110 -22 -303 -22 -206 0 -223
1 -223 18 0 9 18 117 40 238 38 218 47 248 119 407 l31 67 140 0 c77 0 140 -4
140 -9z"/>
</g>
</svg>
